<svg width="179" height="169" viewBox="0 0 179 169" fill="none" xmlns="http://www.w3.org/2000/svg">
<path d="M20.8548 29.1838C21.1216 23.181 29.7478 21.6803 34.0276 21.6803C34.4723 20.1241 36.0619 16.3113 38.8633 13.5098C42.3649 10.008 51.3691 14.844 51.3691 13.5098C51.3691 12.1757 55.2042 6.17307 62.0407 3.67129C67.51 1.66987 83.3284 7.28389 90.554 10.3411C93.7222 8.00665 103.493 3.4045 117.233 3.67129C134.408 4.00478 120.568 17.5117 130.739 13.5098C138.877 10.3083 143.579 17.6229 144.913 21.6803C147.636 21.6803 153.984 22.6141 157.585 26.3492C161.187 30.0842 157.419 39.4664 155.084 43.6906C157.196 44.691 162.754 47.5924 168.09 51.1941C173.426 54.7958 169.924 61.3882 167.701 64.4452C166.7 66.4461 161.921 68.9023 165.923 75.7055C170.925 84.2095 172.426 96.2151 172.259 99.2165C172.125 101.618 165.756 104.552 162.588 105.72C162.421 107.498 162.187 112.756 162.588 119.559C163.088 128.063 159.586 136.734 156.418 139.235C153.884 141.236 144.357 136.623 139.91 134.066C139.355 140.791 137.009 154.876 132.073 157.41C127.138 159.945 113.454 151.352 107.228 146.739C104.005 152.408 95.6564 164.08 88.0529 165.414C78.5484 167.081 73.2126 147.239 70.8782 146.739C68.5438 146.238 54.704 156.743 46.5335 157.41C39.9971 157.944 37.4737 142.959 37.0291 135.4C33.9165 137.067 26.3241 140.169 20.8548 139.235C15.3855 138.301 15.2411 116.502 15.8525 105.72C14.2957 104.964 12.5843 104.819 7.51531 99.2165C2.44628 93.6139 10.9613 77.095 15.8525 69.536C13.1846 66.5901 8.01551 59.4646 8.68248 54.529C9.34946 49.5933 19.4097 45.2469 24.3564 43.6906C23.0781 41.3562 20.588 35.1866 20.8548 29.1838Z" fill="#FD7811" stroke="black" stroke-width="5.00233"/>
<path d="M58.3038 21.9918C53.1014 23.059 43.3524 32.4411 39.1282 36.9988C33.7924 37.9995 31.2912 20.8246 38.1277 14.655C44.9643 8.4855 64.8068 20.6578 58.3038 21.9918Z" fill="#FEC601" stroke="black" stroke-width="5.00233"/>
<path d="M120.913 21.9918C126.115 23.059 135.864 32.4411 140.089 36.9988C145.424 37.9995 147.926 20.8246 141.089 14.655C134.253 8.4855 114.41 20.6578 120.913 21.9918Z" fill="#FEC601" stroke="black" stroke-width="5.00233"/>
<circle cx="88.9969" cy="80.9529" r="52.858" fill="#FEC601" stroke="black" stroke-width="5.00233"/>
<circle cx="68.4874" cy="68.7804" r="6.50303" fill="black"/>
<circle cx="66.3198" cy="66.6128" r="1.66744" fill="white"/>
<circle cx="106.505" cy="68.7804" r="6.50303" fill="black"/>
<circle cx="104.338" cy="66.6128" r="1.66744" fill="white"/>
<path d="M112.508 101.466C112.508 113.468 97.8345 115.962 89.2462 115.962C78.6589 115.962 66.2354 111.987 66.2354 101.466C66.2353 88.4566 79.9928 81.6201 89.2462 81.6201C94.4996 81.6201 112.508 85.4552 112.508 101.466Z" fill="#FFE27C"/>
<path d="M88.7157 94.1298C85.4435 94.1298 82.3823 90.1715 82.3823 87.9284C82.6462 87.1367 85.3379 85.9492 88.7157 85.9492C92.0935 85.9492 95.0491 87.4006 95.0491 88.1923C95.0491 90.1715 91.988 94.1298 88.7157 94.1298Z" fill="black" stroke="black" stroke-width="1.31946"/>
<path d="M81.3271 96.1092C81.5031 96.681 82.3801 98.3523 84.4938 98.3523C86.605 98.3523 87.7485 96.3291 88.0564 95.7134L88.848 92.8105L89.6397 95.7134C89.8596 96.461 91.487 98.3523 93.2023 98.3523C94.7996 98.3523 96.237 96.7689 96.5009 96.1092" stroke="black" stroke-width="2.63891" stroke-linecap="round"/>
<path d="M112.882 95.984C121.688 93.1307 126.142 92.4538 127.269 92.472" stroke="black" stroke-width="1.66744" stroke-linecap="round"/>
<path d="M66.1129 95.985C57.3065 93.1317 52.8523 92.4548 51.726 92.4729" stroke="black" stroke-width="1.66744" stroke-linecap="round"/>
<path d="M112.988 102.949C122.072 101.46 126.569 101.465 127.682 101.654" stroke="black" stroke-width="1.66744" stroke-linecap="round"/>
<path d="M66.007 102.951C56.9231 101.462 52.426 101.467 51.313 101.656" stroke="black" stroke-width="1.66744" stroke-linecap="round"/>
</svg>
