<svg width="185" height="176" viewBox="0 0 185 176" fill="none" xmlns="http://www.w3.org/2000/svg">
<path d="M23.5209 29.336C23.7944 23.1822 32.6376 21.6438 37.025 21.6438C37.4809 20.0484 39.1105 16.1397 41.9822 13.2678C45.5719 9.67798 54.8026 14.6355 54.8026 13.2678C54.8026 11.9002 58.7341 5.74658 65.7426 3.18189C71.3493 1.13013 87.5656 6.88533 94.9729 10.0194C98.2208 7.62627 108.238 2.90839 122.323 3.18189C139.93 3.52376 125.742 17.3703 136.169 13.2678C144.511 9.98584 149.331 17.4843 150.699 21.6438C153.491 21.6438 159.998 22.601 163.69 26.43C167.382 30.2591 163.519 39.8772 161.126 44.2076C163.291 45.2332 168.989 48.2075 174.459 51.8998C179.929 55.592 176.339 62.3503 174.06 65.4841C173.034 67.5354 168.134 70.0534 172.237 77.0276C177.365 85.7454 178.903 98.0529 178.732 101.13C178.596 103.591 172.066 106.6 168.818 107.796C168.647 109.62 168.408 115.01 168.818 121.984C169.331 130.702 165.741 139.591 162.493 142.155C159.895 144.206 150.129 139.477 145.571 136.856C145.001 143.75 142.596 158.189 137.536 160.787C132.477 163.385 118.448 154.576 112.067 149.847C108.762 155.659 100.204 167.625 92.4089 168.992C82.6654 170.701 77.1954 150.36 74.8023 149.847C72.4092 149.334 58.2213 160.103 49.8454 160.787C43.1446 161.334 40.5578 145.972 40.1019 138.223C36.9111 139.933 29.1277 143.112 23.5209 142.155C17.9141 141.198 17.766 118.85 18.3928 107.796C16.7969 107.022 15.0425 106.873 9.84596 101.13C4.64946 95.3863 13.3787 78.4521 18.3928 70.7029C15.6578 67.683 10.3587 60.3783 11.0425 55.3185C11.7262 50.2588 22.0395 45.803 27.1106 44.2076C25.8001 41.8144 23.2474 35.4897 23.5209 29.336Z" fill="#FD7811" stroke="black" stroke-width="5.12813"/>
<path d="M61.9133 21.9641C56.58 23.0581 46.5859 32.6761 42.2554 37.3484C36.7854 38.3743 34.2214 20.7675 41.2298 14.4428C48.2383 8.1181 68.5799 20.5965 61.9133 21.9641Z" fill="#FEC601" stroke="black" stroke-width="5.12813"/>
<path d="M126.096 21.9641C131.43 23.0581 141.424 32.6761 145.754 37.3484C151.224 38.3743 153.788 20.7675 146.78 14.4428C139.771 8.1181 119.43 20.5965 126.096 21.9641Z" fill="#FEC601" stroke="black" stroke-width="5.12813"/>
<circle cx="93.3763" cy="82.4066" r="54.1873" fill="#FEC601" stroke="black" stroke-width="5.12813"/>
<path d="M117.481 103.436C117.481 115.74 102.439 118.297 93.6344 118.297C82.7809 118.297 70.0449 114.222 70.0449 103.436C70.0449 90.0993 84.1484 83.0908 93.6344 83.0908C99.02 83.0908 117.481 87.0224 117.481 103.436Z" fill="#FFE27C"/>
<path d="M93.0903 95.9166C89.7358 95.9166 86.5977 91.8587 86.5977 89.5592C86.8682 88.7476 89.6276 87.5303 93.0903 87.5303C96.5531 87.5303 99.583 89.0182 99.583 89.8298C99.583 91.8587 96.4449 95.9166 93.0903 95.9166Z" fill="black" stroke="black" stroke-width="1.35264"/>
<path d="M85.5137 97.9451C85.694 98.5312 86.5931 100.245 88.76 100.245C90.9242 100.245 92.0965 98.1705 92.4121 97.5393L93.2237 94.5635L94.0353 97.5393C94.2607 98.3058 95.929 100.245 97.6874 100.245C99.3249 100.245 100.798 98.6214 101.069 97.9451" stroke="black" stroke-width="2.70528" stroke-linecap="round"/>
<path d="M117.859 97.8157C126.886 94.8907 131.453 94.1967 132.607 94.2154" stroke="black" stroke-width="1.70938" stroke-linecap="round"/>
<path d="M69.9129 97.8187C60.885 94.8937 56.3188 94.1997 55.1642 94.2183" stroke="black" stroke-width="1.70938" stroke-linecap="round"/>
<path d="M117.972 104.957C127.284 103.431 131.895 103.436 133.036 103.63" stroke="black" stroke-width="1.70938" stroke-linecap="round"/>
<path d="M69.8072 104.957C60.4948 103.431 55.8846 103.436 54.7436 103.63" stroke="black" stroke-width="1.70938" stroke-linecap="round"/>
<path d="M63.2509 96.0225C63.1684 89.8174 68.668 83.9883 71.9678 81.9199C74.7176 83.6122 79.75 90.6071 79.75 96.0225C79.75 101.438 74.5342 103.92 71.9678 103.92C69.4013 103.92 63.3358 102.404 63.2509 96.0225Z" fill="#7CC4FF" stroke="black" stroke-width="2.75"/>
<path d="M104.501 96.0225C104.418 89.8174 109.918 83.9883 113.218 81.9199C115.968 83.6122 121 90.6071 121 96.0225C121 101.438 115.784 103.92 113.218 103.92C110.651 103.92 104.586 102.404 104.501 96.0225Z" fill="#7CC4FF" stroke="black" stroke-width="2.75"/>
<path d="M61.875 72.2931C71.5 68.1683 79.75 73.6672 77.1733 72.6359C73.0483 73.5527 68.9233 74.0109 63.4233 78.1358" stroke="black" stroke-width="2.75" stroke-linecap="round"/>
<path d="M123.025 72.2931C113.4 68.1683 105.15 73.6672 107.727 72.6359C111.852 73.5527 115.977 74.0109 121.477 78.1358" stroke="black" stroke-width="2.75" stroke-linecap="round"/>
</svg>
