<svg width="415" height="415" viewBox="0 0 415 415" fill="none" xmlns="http://www.w3.org/2000/svg">
<rect width="415" height="415" fill="white"/>
<path d="M201.7 139.4H190.2V104.2H183.4V138.1H171.9V62.9H183.4V91.6H190.2V62.6H201.7V139.4ZM163 122.8C165.333 122.4 167.4 121.8 169.2 121V132.5C164.933 134.5 158.433 135.5 149.7 135.5H129.4V123.8H134.1V76.4H129.9V64.7H167.2V76.4H163V122.8ZM151.7 123.8V76.4H145.2V123.8H147.4H151.7ZM280.889 139.4H269.089V104.2H261.189V138.1H249.489V62.9H261.189V91.6H269.089V62.6H280.889V139.4ZM243.189 64.5V135.5H210.589V64.5H222.089V88.4H231.589V64.5H243.189ZM231.589 100.3H222.089V123.6H231.589V100.3Z" fill="#FD7811"/>
<path d="M135.521 203.336C135.794 197.182 144.638 195.644 149.025 195.644C149.481 194.048 151.11 190.14 153.982 187.268C157.572 183.678 166.803 188.636 166.803 187.268C166.803 185.9 170.734 179.747 177.743 177.182C183.349 175.13 199.566 180.885 206.973 184.019C210.221 181.626 220.238 176.908 234.323 177.182C251.93 177.524 237.742 191.37 248.169 187.268C256.511 183.986 261.331 191.484 262.699 195.644C265.491 195.644 271.998 196.601 275.69 200.43C279.382 204.259 275.519 213.877 273.126 218.208C275.291 219.233 280.989 222.208 286.459 225.9C291.929 229.592 288.339 236.35 286.06 239.484C285.034 241.535 280.134 244.053 284.237 251.028C289.365 259.745 290.903 272.053 290.732 275.13C290.596 277.591 284.066 280.6 280.818 281.796C280.647 283.62 280.408 289.01 280.818 295.984C281.331 304.702 277.741 313.591 274.493 316.155C271.895 318.206 262.129 313.477 257.571 310.856C257.001 317.75 254.596 332.189 249.536 334.787C244.477 337.385 230.448 328.576 224.067 323.847C220.762 329.659 212.204 341.625 204.409 342.992C194.665 344.701 189.195 324.36 186.802 323.847C184.409 323.334 170.221 334.103 161.845 334.787C155.145 335.334 152.558 319.972 152.102 312.223C148.911 313.933 141.128 317.112 135.521 316.155C129.914 315.198 129.766 292.85 130.393 281.796C128.797 281.022 127.042 280.873 121.846 275.13C116.649 269.386 125.379 252.452 130.393 244.703C127.658 241.683 122.359 234.378 123.042 229.319C123.726 224.259 134.039 219.803 139.111 218.208C137.8 215.814 135.247 209.49 135.521 203.336Z" fill="#FD7811" stroke="black" stroke-width="5.12813"/>
<path d="M173.911 195.964C168.578 197.058 158.584 206.676 154.253 211.348C148.783 212.374 146.219 194.767 153.228 188.443C160.236 182.118 180.578 194.597 173.911 195.964Z" fill="#FEC601" stroke="black" stroke-width="5.12813"/>
<path d="M238.096 195.964C243.43 197.058 253.424 206.676 257.754 211.348C263.224 212.374 265.788 194.767 258.78 188.443C251.771 182.118 231.43 194.597 238.096 195.964Z" fill="#FEC601" stroke="black" stroke-width="5.12813"/>
<circle cx="205.376" cy="256.408" r="54.1873" fill="#FEC601" stroke="black" stroke-width="5.12813"/>
<path d="M229.478 277.436C229.478 289.74 214.436 292.297 205.631 292.297C194.778 292.297 182.042 288.222 182.042 277.436C182.042 264.099 196.145 257.091 205.631 257.091C211.017 257.091 229.478 261.022 229.478 277.436Z" fill="#FFE27C"/>
<path d="M205.085 269.915C201.731 269.915 198.593 265.857 198.593 263.558C198.863 262.746 201.623 261.529 205.085 261.529C208.548 261.529 211.578 263.017 211.578 263.828C211.578 265.857 208.44 269.915 205.085 269.915Z" fill="black" stroke="black" stroke-width="1.35264"/>
<path d="M197.511 271.944C197.691 272.53 198.59 274.243 200.757 274.243C202.921 274.243 204.094 272.169 204.409 271.538L205.221 268.562L206.032 271.538C206.258 272.304 207.926 274.243 209.684 274.243C211.322 274.243 212.796 272.62 213.066 271.944" stroke="black" stroke-width="2.70528" stroke-linecap="round"/>
<path d="M229.863 271.816C238.89 268.891 243.457 268.197 244.611 268.216" stroke="black" stroke-width="1.70938" stroke-linecap="round"/>
<path d="M181.917 271.818C172.889 268.893 168.323 268.199 167.168 268.217" stroke="black" stroke-width="1.70938" stroke-linecap="round"/>
<path d="M229.969 278.957C239.282 277.43 243.892 277.436 245.033 277.63" stroke="black" stroke-width="1.70938" stroke-linecap="round"/>
<path d="M181.807 278.958C172.495 277.432 167.885 277.437 166.744 277.631" stroke="black" stroke-width="1.70938" stroke-linecap="round"/>
<path d="M175.251 270.021C175.168 263.816 180.668 257.987 183.968 255.918C186.718 257.611 191.75 264.606 191.75 270.021C191.75 275.436 186.534 277.918 183.968 277.918C181.401 277.918 175.336 276.403 175.251 270.021Z" fill="#7CC4FF" stroke="black" stroke-width="2.75"/>
<path d="M216.501 270.021C216.418 263.816 221.918 257.987 225.218 255.918C227.968 257.611 233 264.606 233 270.021C233 275.436 227.784 277.918 225.218 277.918C222.651 277.918 216.586 276.403 216.501 270.021Z" fill="#7CC4FF" stroke="black" stroke-width="2.75"/>
<path d="M173.875 246.295C183.5 242.17 191.75 247.669 189.173 246.637C185.048 247.554 180.923 248.012 175.423 252.137" stroke="black" stroke-width="2.75" stroke-linecap="round"/>
<path d="M235.025 246.295C225.4 242.17 217.15 247.669 219.727 246.637C223.852 247.554 227.977 248.012 233.477 252.137" stroke="black" stroke-width="2.75" stroke-linecap="round"/>
</svg>
