<svg width="415" height="415" viewBox="0 0 415 415" fill="none" xmlns="http://www.w3.org/2000/svg">
<rect width="415" height="415" fill="white"/>
<g clip-path="url(#clip0_334_1019)">
<path d="M139.854 204.184C140.121 198.181 148.747 196.68 153.027 196.68C153.472 195.124 155.061 191.311 157.863 188.51C161.364 185.008 170.369 189.844 170.369 188.51C170.369 187.176 174.204 181.173 181.04 178.671C186.509 176.67 202.328 182.284 209.554 185.341C212.722 183.007 222.493 178.405 236.233 178.671C253.407 179.005 239.568 192.512 249.739 188.51C257.876 185.308 262.578 192.623 263.912 196.68C266.636 196.68 272.983 197.614 276.585 201.349C280.187 205.084 276.418 214.466 274.084 218.691C276.196 219.691 281.754 222.592 287.09 226.194C292.426 229.796 288.923 236.388 286.7 239.445C285.7 241.446 280.92 243.902 284.922 250.706C289.924 259.209 291.425 271.215 291.258 274.216C291.125 276.618 284.755 279.552 281.587 280.72C281.42 282.498 281.187 287.756 281.587 294.559C282.087 303.063 278.586 311.734 275.418 314.235C272.883 316.236 263.356 311.623 258.91 309.066C258.354 315.791 256.009 329.876 251.073 332.41C246.137 334.945 232.453 326.352 226.228 321.739C223.004 327.408 214.656 339.08 207.052 340.414C197.548 342.081 192.212 322.239 189.878 321.739C187.543 321.238 173.703 331.743 165.533 332.41C158.997 332.944 156.473 317.959 156.029 310.4C152.916 312.067 145.324 315.169 139.854 314.235C134.385 313.301 134.241 291.502 134.852 280.72C133.295 279.964 131.584 279.819 126.515 274.216C121.446 268.614 129.961 252.095 134.852 244.536C132.184 241.59 127.015 234.465 127.682 229.529C128.349 224.593 138.409 220.247 143.356 218.691C142.078 216.356 139.588 210.187 139.854 204.184Z" fill="#FD7811" stroke="black" stroke-width="5.00233"/>
<path d="M177.304 196.992C172.102 198.059 162.353 207.442 158.129 211.999C152.793 213 150.292 195.825 157.128 189.656C163.965 183.486 183.807 195.658 177.304 196.992Z" fill="#FEC601" stroke="black" stroke-width="5.00233"/>
<path d="M239.912 196.992C245.115 198.059 254.864 207.442 259.088 211.999C264.424 213 266.925 195.825 260.089 189.656C253.252 183.486 233.409 195.658 239.912 196.992Z" fill="#FEC601" stroke="black" stroke-width="5.00233"/>
<circle cx="207.997" cy="255.953" r="52.858" fill="#FEC601" stroke="black" stroke-width="5.00233"/>
<circle cx="187.487" cy="243.781" r="6.50303" fill="black"/>
<circle cx="185.32" cy="241.613" r="1.66744" fill="white"/>
<circle cx="225.505" cy="243.781" r="6.50303" fill="black"/>
<circle cx="223.337" cy="241.613" r="1.66744" fill="white"/>
<path d="M231.508 276.466C231.508 288.468 216.834 290.962 208.246 290.962C197.659 290.962 185.235 286.987 185.235 276.466C185.235 263.457 198.993 256.62 208.246 256.62C213.5 256.62 231.508 260.455 231.508 276.466Z" fill="#FFE27C"/>
<path d="M207.716 269.129C204.444 269.129 201.383 265.171 201.383 262.928C201.647 262.136 204.338 260.949 207.716 260.949C211.094 260.949 214.05 262.4 214.05 263.192C214.05 265.171 210.988 269.129 207.716 269.129Z" fill="black" stroke="black" stroke-width="1.31946"/>
<path d="M200.327 271.109C200.503 271.68 201.38 273.352 203.494 273.352C205.605 273.352 206.749 271.329 207.056 270.713L207.848 267.81L208.64 270.713C208.86 271.461 210.487 273.352 212.202 273.352C213.8 273.352 215.237 271.768 215.501 271.109" stroke="black" stroke-width="2.63891" stroke-linecap="round"/>
<path d="M231.882 270.984C240.689 268.131 245.143 267.454 246.269 267.472" stroke="black" stroke-width="1.66744" stroke-linecap="round"/>
<path d="M185.113 270.985C176.307 268.132 171.852 267.455 170.726 267.473" stroke="black" stroke-width="1.66744" stroke-linecap="round"/>
<path d="M231.988 277.949C241.072 276.46 245.569 276.466 246.682 276.655" stroke="black" stroke-width="1.66744" stroke-linecap="round"/>
<path d="M185.007 277.95C175.923 276.461 171.426 276.467 170.312 276.656" stroke="black" stroke-width="1.66744" stroke-linecap="round"/>
</g>
<path d="M166.4 79C162.267 82.9333 157.167 86.0333 151.1 88.3C145.1 90.5667 138.767 91.7667 132.1 91.9V81C136.833 80.8 141.4 79.8333 145.8 78.1C150.267 76.3667 154.033 73.9667 157.1 70.9C160.233 67.8333 162.167 64.3667 162.9 60.5L175.7 62.8C175.1 65.4667 174.2 67.9667 173 70.3L202.3 82.1L197.8 92.1L166.4 79ZM203.4 106.5H129.8V96.2H203.4V106.5ZM166.6 110.7C188.533 110.7 199.5 115.6 199.5 125.4C199.5 130.6 196.567 134.333 190.7 136.6C184.833 138.933 176.8 140.1 166.6 140.1C156.4 140.1 148.333 138.933 142.4 136.6C136.533 134.267 133.6 130.533 133.6 125.4C133.6 115.6 144.6 110.7 166.6 110.7ZM166.6 130.1C179.6 130.1 186.1 128.533 186.1 125.4C186.1 122.267 179.6 120.7 166.6 120.7C160.6 120.7 155.833 121.067 152.3 121.8C148.767 122.533 147 123.733 147 125.4C147 127.067 148.767 128.267 152.3 129C155.833 129.733 160.6 130.1 166.6 130.1ZM266.189 139.4V62.6H278.889V139.4H266.189ZM225.089 105.7V123.6H242.689C246.089 123.6 249.489 123.267 252.889 122.6C256.356 121.867 259.256 120.967 261.589 119.9V131.8C259.389 132.933 256.523 133.833 252.989 134.5C249.456 135.167 245.856 135.5 242.189 135.5H212.489V93.9H241.989V76.7H212.389V64.7H254.489V105.7H225.089Z" fill="#FD7811"/>
<defs>
<clipPath id="clip0_334_1019">
<rect width="178" height="169" fill="white" transform="translate(119 175)"/>
</clipPath>
</defs>
</svg>
