<svg width="49" height="44" viewBox="0 0 49 44" fill="none" xmlns="http://www.w3.org/2000/svg">
<path d="M29.4279 0.170518C29.1441 0.0322386 28.8272 -0.023671 28.5133 0.00914235C28.1993 0.0419557 27.9009 0.162176 27.6518 0.356143L12.9199 11.8122H3.375C2.47989 11.8122 1.62145 12.1677 0.988515 12.8007C0.355579 13.4336 0 14.2921 0 15.1872V28.6872C0 29.5823 0.355579 30.4407 0.988515 31.0736C1.62145 31.7066 2.47989 32.0622 3.375 32.0622H12.9199L27.6518 43.5182C27.9011 43.712 28.1998 43.8319 28.5138 43.8644C28.8279 43.8969 29.1448 43.8406 29.4285 43.702C29.7122 43.5633 29.9513 43.3479 30.1186 43.0801C30.2859 42.8123 30.3748 42.5029 30.375 42.1872V1.68716C30.375 1.37102 30.2863 1.06123 30.1188 0.793085C29.9514 0.524939 29.712 0.309223 29.4279 0.170518ZM3.375 15.1872H11.8125V28.6872H3.375V15.1872ZM27 38.7362L15.1875 29.5499V14.3244L27 5.1381V38.7362ZM38.3906 16.36C39.7479 17.9008 40.4967 19.8838 40.4967 21.9372C40.4967 23.9906 39.7479 25.9735 38.3906 27.5143C38.0925 27.8419 37.6775 28.0392 37.2352 28.0635C36.793 28.0878 36.3588 27.9373 36.0266 27.6443C35.6943 27.3514 35.4906 26.9396 35.4593 26.4977C35.428 26.0559 35.5717 25.6195 35.8594 25.2826C36.6733 24.3582 37.1223 23.1688 37.1223 21.9372C37.1223 20.7055 36.6733 19.5161 35.8594 18.5917C35.5717 18.2549 35.428 17.8184 35.4593 17.3766C35.4906 16.9348 35.6943 16.5229 36.0266 16.23C36.3588 15.9371 36.793 15.7865 37.2352 15.8108C37.6775 15.8351 38.0925 16.0324 38.3906 16.36ZM48.9375 21.9372C48.9399 26.0888 47.4099 30.0953 44.6407 33.1886C44.3401 33.5138 43.9237 33.7079 43.4813 33.7288C43.0388 33.7498 42.6059 33.596 42.2759 33.3006C41.9459 33.0052 41.7453 32.5919 41.7173 32.1498C41.6893 31.7078 41.8362 31.2725 42.1263 30.9379C44.3399 28.4628 45.5637 25.2587 45.5637 21.9382C45.5637 18.6177 44.3399 15.4136 42.1263 12.9386C41.9744 12.7742 41.8567 12.5812 41.7801 12.3708C41.7034 12.1605 41.6694 11.937 41.68 11.7134C41.6906 11.4898 41.7456 11.2705 41.8417 11.0683C41.9379 10.8662 42.0733 10.6852 42.2401 10.5359C42.4069 10.3866 42.6018 10.2719 42.8133 10.1987C43.0248 10.1254 43.2488 10.095 43.4723 10.1091C43.6957 10.1232 43.914 10.1817 44.1146 10.2811C44.3152 10.3804 44.4941 10.5187 44.6407 10.6879C47.4106 13.7798 48.9408 17.786 48.9375 21.9372Z" fill="black"/>
</svg>
