<svg width="67" height="64" viewBox="0 0 67 64" fill="none" xmlns="http://www.w3.org/2000/svg">
<path d="M8.55306 10.6676C8.65252 8.4299 11.8682 7.87047 13.4636 7.87047C13.6294 7.29034 14.222 5.86899 15.2663 4.82467C16.5716 3.51927 19.9282 5.32201 19.9282 4.82467C19.9282 4.32734 21.3579 2.08966 23.9064 1.15705C25.9452 0.410958 31.8421 2.50376 34.5356 3.64342C35.7166 2.77319 39.3592 1.05759 44.4811 1.15705C50.8835 1.28137 45.7243 6.31649 49.516 4.82467C52.5493 3.63121 54.3022 6.35793 54.7995 7.87047C55.8148 7.87047 58.181 8.21856 59.5236 9.61093C60.8662 11.0033 59.4614 14.5008 58.5912 16.0755C59.3786 16.4484 61.4505 17.53 63.4396 18.8726C65.4287 20.2153 64.1232 22.6728 63.2944 23.8124C62.9214 24.5583 61.1397 25.4739 62.6316 28.01C64.4963 31.1802 65.0558 35.6556 64.9936 36.7745C64.9439 37.6696 62.5694 38.7636 61.3884 39.1987C61.3262 39.8617 61.2392 41.8218 61.3884 44.3579C61.5749 47.528 60.2695 50.7603 59.0885 51.6927C58.1437 52.4386 54.5923 50.7189 52.9347 49.7658C52.7275 52.2728 51.8532 57.5232 50.0132 58.468C48.1733 59.4129 43.0721 56.2096 40.7515 54.4898C39.5498 56.6033 36.4377 60.9544 33.6032 61.4517C30.0602 62.0733 28.0711 54.6763 27.2008 54.4898C26.3306 54.3034 21.1714 58.2194 18.1256 58.468C15.689 58.6669 14.7483 53.0809 14.5825 50.263C13.4222 50.8846 10.5919 52.0408 8.55306 51.6927C6.51423 51.3446 6.46037 43.2183 6.6883 39.1987C6.10796 38.9171 5.46999 38.863 3.58035 36.7745C1.69071 34.6859 4.86496 28.528 6.6883 25.7102C5.69375 24.612 3.76681 21.9557 4.01545 20.1158C4.26409 18.2759 8.01435 16.6556 9.8584 16.0755C9.38185 15.2053 8.45361 12.9054 8.55306 10.6676Z" fill="#FD7811" stroke="black" stroke-width="1.86478"/>
<path d="M22.5136 7.98681C20.5742 8.38462 16.94 11.8821 15.3653 13.5811C13.3762 13.9542 12.4438 7.55169 14.9924 5.2518C17.5409 2.95191 24.9378 7.48953 22.5136 7.98681Z" fill="#FEC601" stroke="black" stroke-width="1.86478"/>
<path d="M45.8526 7.98681C47.792 8.38462 51.4262 11.8821 53.0009 13.5811C54.99 13.9542 55.9224 7.55169 53.3739 5.2518C50.8253 2.95191 43.4284 7.48953 45.8526 7.98681Z" fill="#FEC601" stroke="black" stroke-width="1.86478"/>
<circle cx="33.9552" cy="29.9663" r="19.7045" fill="#FEC601" stroke="black" stroke-width="1.86478"/>
<path d="M42.7198 37.6132C42.7198 42.0875 37.2498 43.0173 34.0482 43.0173C30.1015 43.0173 25.4702 41.5353 25.4702 37.6132C25.4702 32.7636 30.5987 30.2151 34.0482 30.2151C36.0066 30.2151 42.7198 31.6447 42.7198 37.6132Z" fill="#FFE27C"/>
<path d="M33.8502 34.8786C32.6304 34.8786 31.4893 33.403 31.4893 32.5668C31.5876 32.2717 32.591 31.829 33.8502 31.829C35.1094 31.829 36.2112 32.37 36.2112 32.6652C36.2112 33.403 35.0701 34.8786 33.8502 34.8786Z" fill="black" stroke="black" stroke-width="0.491868"/>
<path d="M31.0957 35.6164C31.1613 35.8295 31.4882 36.4526 32.2762 36.4526C33.0632 36.4526 33.4895 35.6984 33.6042 35.4688L33.8994 34.3867L34.1945 35.4688C34.2765 35.7476 34.8831 36.4526 35.5225 36.4526C36.118 36.4526 36.6538 35.8623 36.7522 35.6164" stroke="black" stroke-width="0.983736" stroke-linecap="round"/>
<path d="M42.859 35.5695C46.1419 34.5058 47.8023 34.2535 48.2222 34.2602" stroke="black" stroke-width="0.621592" stroke-linecap="round"/>
<path d="M25.4247 35.5698C22.1418 34.5062 20.4814 34.2538 20.0615 34.2606" stroke="black" stroke-width="0.621592" stroke-linecap="round"/>
<path d="M42.8988 38.1659C46.2851 37.6108 47.9615 37.6129 48.3764 37.6833" stroke="black" stroke-width="0.621592" stroke-linecap="round"/>
<path d="M25.3849 38.1665C21.9986 37.6114 20.3222 37.6135 19.9072 37.6839" stroke="black" stroke-width="0.621592" stroke-linecap="round"/>
<path d="M23.0003 34.9168C22.9703 32.6604 24.9702 30.5407 26.1701 29.7886C27.17 30.404 29 32.9475 29 34.9168C29 36.886 27.1034 37.7886 26.1701 37.7886C25.2368 37.7886 23.0312 37.2373 23.0003 34.9168Z" fill="#7CC4FF" stroke="black"/>
<path d="M38.0003 34.9168C37.9703 32.6604 39.9702 30.5407 41.1701 29.7886C42.17 30.404 44 32.9475 44 34.9168C44 36.886 42.1034 37.7886 41.1701 37.7886C40.2368 37.7886 38.0312 37.2373 38.0003 34.9168Z" fill="#7CC4FF" stroke="black"/>
<path d="M22.5 26.2889C26 24.789 29 26.7886 28.063 26.4136C26.563 26.7469 25.063 26.9136 23.063 28.4135" stroke="black" stroke-linecap="round"/>
<path d="M44.7363 26.2889C41.2363 24.789 38.2363 26.7886 39.1733 26.4136C40.6733 26.7469 42.1733 26.9136 44.1733 28.4135" stroke="black" stroke-linecap="round"/>
</svg>
