<svg width="182" height="173" viewBox="0 0 182 173" fill="none" xmlns="http://www.w3.org/2000/svg">
<path d="M21.2982 29.8049C21.5707 23.6744 30.3805 22.1418 34.7513 22.1418C35.2054 20.5524 36.8289 16.6585 39.6898 13.7975C43.266 10.2212 52.4617 15.16 52.4617 13.7975C52.4617 12.435 56.3785 6.3046 63.3604 3.74959C68.946 1.70559 85.1011 7.43905 92.4804 10.5613C95.716 8.17719 105.695 3.47712 119.727 3.74959C137.267 4.09018 123.133 17.8845 133.521 13.7975C141.831 10.5278 146.633 17.998 147.996 22.1418C150.777 22.1418 157.26 23.0954 160.938 26.91C164.616 30.7245 160.768 40.3063 158.383 44.6204C160.541 45.6421 166.217 48.6052 171.666 52.2835C177.116 55.9618 173.539 62.6946 171.268 65.8166C170.247 67.8601 165.365 70.3685 169.452 77.3165C174.561 86.0014 176.094 98.2624 175.924 101.328C175.787 103.78 169.282 106.777 166.047 107.969C165.876 109.785 165.638 115.155 166.047 122.103C166.558 130.788 162.981 139.643 159.746 142.198C157.157 144.241 147.428 139.53 142.887 136.919C142.319 143.787 139.924 158.171 134.883 160.76C129.843 163.348 115.867 154.572 109.51 149.861C106.217 155.651 97.6914 167.571 89.926 168.934C80.2194 170.637 74.77 150.372 72.3859 149.861C70.0018 149.35 55.8676 160.078 47.5233 160.76C40.8478 161.305 38.2707 146.001 37.8166 138.281C34.6378 139.984 26.8838 143.151 21.2982 142.198C15.7126 141.244 15.565 118.981 16.1895 107.969C14.5996 107.198 12.8518 107.049 7.6749 101.328C2.49801 95.6058 11.1942 78.7356 16.1895 71.0156C13.4648 68.0071 8.18574 60.73 8.86691 55.6893C9.54807 50.6487 19.8224 46.2097 24.8743 44.6204C23.5688 42.2363 21.0257 35.9355 21.2982 29.8049Z" fill="#FD7811"/>
<path d="M59.5447 22.4602C54.2316 23.5501 44.2751 33.1318 39.9611 37.7865C34.5117 38.8085 31.9573 21.2681 38.9393 14.9673C45.9213 8.66652 66.1861 21.0978 59.5447 22.4602Z" fill="#FEC601"/>
<path d="M123.486 22.4602C128.799 23.5501 138.755 33.1318 143.069 37.7865C148.519 38.8085 151.073 21.2681 144.091 14.9673C137.109 8.66652 116.844 21.0978 123.486 22.4602Z" fill="#FEC601"/>
<circle cx="90.8905" cy="82.6757" r="56.537" fill="#FEC601"/>
<circle cx="69.9446" cy="70.2439" r="6.6414" fill="black"/>
<circle cx="67.7308" cy="68.0301" r="1.70292" fill="white"/>
<circle cx="108.771" cy="70.2439" r="6.6414" fill="black"/>
<circle cx="106.557" cy="68.0301" r="1.70292" fill="white"/>
<path d="M114.902 103.624C114.902 115.882 99.916 118.429 91.1449 118.429C80.3324 118.429 67.6445 114.37 67.6445 103.624C67.6445 90.3384 81.6947 83.3564 91.1449 83.3564C96.5101 83.3564 114.902 87.2732 114.902 103.624Z" fill="#FFE27C"/>
<path d="M90.6034 96.132C87.2615 96.132 84.1353 92.0894 84.1353 89.7986C84.4048 88.9901 87.1537 87.7773 90.6034 87.7773C94.0531 87.7773 97.0715 89.2596 97.0715 90.0681C97.0715 92.0894 93.9453 96.132 90.6034 96.132Z" fill="black" stroke="black" stroke-width="1.34753"/>
<path d="M83.0571 98.154C83.2368 98.7379 84.1325 100.445 86.2912 100.445C88.4472 100.445 89.6151 98.3786 89.9295 97.7497L90.738 94.7852L91.5466 97.7497C91.7712 98.5133 93.4331 100.445 95.1849 100.445C96.8162 100.445 98.2842 98.8277 98.5537 98.154" stroke="black" stroke-width="2.69506" stroke-linecap="round"/>
<path d="M115.284 98.0259C124.277 95.1119 128.826 94.4206 129.977 94.4391" stroke="black" stroke-width="1.70292" stroke-linecap="round"/>
<path d="M67.5196 98.0269C58.5259 95.1129 53.9769 94.4215 52.8266 94.4401" stroke="black" stroke-width="1.70292" stroke-linecap="round"/>
<path d="M115.392 105.14C124.669 103.619 129.262 103.625 130.398 103.818" stroke="black" stroke-width="1.70292" stroke-linecap="round"/>
<path d="M67.4116 105.141C58.1344 103.62 53.5416 103.626 52.4048 103.819" stroke="black" stroke-width="1.70292" stroke-linecap="round"/>
</svg>
