<svg width="67" height="63" viewBox="0 0 67 63" fill="none" xmlns="http://www.w3.org/2000/svg">
<path d="M7.77376 10.8791C7.87322 8.64133 11.0889 8.0819 12.6843 8.0819C12.8501 7.50176 13.4427 6.08042 14.487 5.0361C15.7923 3.73069 19.1489 5.53343 19.1489 5.0361C19.1489 4.53876 20.5786 2.30109 23.1271 1.36848C25.1659 0.622384 31.0628 2.71518 33.7563 3.85484C34.9373 2.98461 38.5799 1.26902 43.7018 1.36848C50.1042 1.49279 44.945 6.52792 48.7367 5.0361C51.77 3.84264 53.5229 6.56936 54.0202 8.0819C55.0355 8.0819 57.4017 8.42999 58.7443 9.82235C60.0869 11.2147 58.6821 14.7122 57.8119 16.2869C58.5993 16.6599 60.6712 17.7414 62.6603 19.0841C64.6494 20.4267 63.3439 22.8843 62.5151 24.0238C62.1422 24.7698 60.3604 25.6854 61.8523 28.2215C63.717 31.3916 64.2765 35.867 64.2143 36.9859C64.1646 37.881 61.7901 38.975 60.6091 39.4101C60.5469 40.0732 60.4599 42.0332 60.6091 44.5693C60.7956 47.7394 59.4902 50.9717 58.3092 51.9041C57.3644 52.65 53.813 50.9303 52.1554 49.9772C51.9482 52.4843 51.0739 57.7346 49.234 58.6795C47.394 59.6243 42.2928 56.421 39.9722 54.7013C38.7705 56.8147 35.6584 61.1658 32.8239 61.6631C29.2809 62.2847 27.2918 54.8878 26.4215 54.7013C25.5513 54.5148 20.3921 58.4308 17.3463 58.6795C14.9097 58.8784 13.969 53.2923 13.8032 50.4745C12.6429 51.096 9.8126 52.2522 7.77376 51.9041C5.73493 51.556 5.68107 43.4297 5.909 39.4101C5.32866 39.1285 4.69069 39.0745 2.80105 36.9859C0.911414 34.8974 4.08567 28.7395 5.909 25.9216C4.91445 24.8234 2.98752 22.1672 3.23615 20.3273C3.48479 18.4873 7.23505 16.8671 9.07911 16.2869C8.60255 15.4167 7.67431 13.1168 7.77376 10.8791Z" fill="#FD7811" stroke="black" stroke-width="1.86478"/>
<path d="M21.7348 8.19835C19.7954 8.59617 16.1612 12.0937 14.5865 13.7927C12.5974 14.1657 11.665 7.76324 14.2135 5.46335C16.7621 3.16346 24.159 7.70108 21.7348 8.19835Z" fill="#FEC601" stroke="black" stroke-width="1.86478"/>
<path d="M45.0738 8.19835C47.0132 8.59617 50.6474 12.0937 52.2221 13.7927C54.2112 14.1657 55.1436 7.76324 52.5951 5.46335C50.0465 3.16346 42.6496 7.70108 45.0738 8.19835Z" fill="#FEC601" stroke="black" stroke-width="1.86478"/>
<circle cx="33.1759" cy="30.1779" r="19.7045" fill="#FEC601" stroke="black" stroke-width="1.86478"/>
<circle cx="25.5307" cy="25.64" r="2.42421" fill="black"/>
<circle cx="24.7232" cy="24.832" r="0.621592" fill="white"/>
<circle cx="39.7035" cy="25.64" r="2.42421" fill="black"/>
<circle cx="38.895" cy="24.832" r="0.621592" fill="white"/>
<path d="M41.941 37.8244C41.941 42.2987 36.471 43.2284 33.2694 43.2284C29.3227 43.2284 24.6914 41.7465 24.6914 37.8244C24.6914 32.9748 29.8199 30.4263 33.2694 30.4263C35.2278 30.4263 41.941 31.8559 41.941 37.8244Z" fill="#FFE27C"/>
<path d="M33.0719 35.0896C31.8521 35.0896 30.7109 33.614 30.7109 32.7778C30.8093 32.4827 31.8127 32.04 33.0719 32.04C34.3311 32.04 35.4329 32.5811 35.4329 32.8762C35.4329 33.614 34.2917 35.0896 33.0719 35.0896Z" fill="black" stroke="black" stroke-width="0.491868"/>
<path d="M30.3174 35.8273C30.383 36.0405 30.7099 36.6635 31.4979 36.6635C32.2849 36.6635 32.7111 35.9093 32.8259 35.6798L33.121 34.5977L33.4162 35.6798C33.4981 35.9585 34.1048 36.6635 34.7442 36.6635C35.3397 36.6635 35.8755 36.0733 35.9739 35.8273" stroke="black" stroke-width="0.983736" stroke-linecap="round"/>
<path d="M42.0807 35.7809C45.3635 34.7172 47.024 34.4649 47.4438 34.4717" stroke="black" stroke-width="0.621592" stroke-linecap="round"/>
<path d="M24.6459 35.7814C21.363 34.7177 19.7026 34.4654 19.2827 34.4721" stroke="black" stroke-width="0.621592" stroke-linecap="round"/>
<path d="M42.1195 38.3774C45.5058 37.8223 47.1822 37.8244 47.5972 37.8948" stroke="black" stroke-width="0.621592" stroke-linecap="round"/>
<path d="M24.6061 38.3779C21.2198 37.8228 19.5434 37.8249 19.1284 37.8953" stroke="black" stroke-width="0.621592" stroke-linecap="round"/>
</svg>
