<svg width="67" height="64" viewBox="0 0 67 64" fill="none" xmlns="http://www.w3.org/2000/svg">
<path d="M8.55306 10.6676C8.65252 8.4299 11.8682 7.87047 13.4636 7.87047C13.6294 7.29034 14.222 5.86899 15.2663 4.82467C16.5716 3.51927 19.9282 5.32201 19.9282 4.82467C19.9282 4.32734 21.3579 2.08966 23.9064 1.15705C25.9452 0.410958 31.8421 2.50376 34.5356 3.64342C35.7166 2.77319 39.3592 1.05759 44.4811 1.15705C50.8835 1.28137 45.7243 6.31649 49.516 4.82467C52.5493 3.63121 54.3022 6.35793 54.7995 7.87047C55.8148 7.87047 58.181 8.21856 59.5236 9.61093C60.8662 11.0033 59.4614 14.5008 58.5912 16.0755C59.3786 16.4484 61.4505 17.53 63.4396 18.8726C65.4287 20.2153 64.1232 22.6728 63.2944 23.8124C62.9214 24.5583 61.1397 25.4739 62.6316 28.01C64.4963 31.1802 65.0558 35.6556 64.9936 36.7745C64.9439 37.6696 62.5694 38.7636 61.3884 39.1987C61.3262 39.8617 61.2392 41.8218 61.3884 44.3579C61.5749 47.528 60.2695 50.7603 59.0885 51.6927C58.1437 52.4386 54.5923 50.7189 52.9347 49.7658C52.7275 52.2728 51.8532 57.5232 50.0132 58.468C48.1733 59.4129 43.0721 56.2096 40.7515 54.4898C39.5498 56.6033 36.4377 60.9544 33.6032 61.4517C30.0602 62.0733 28.0711 54.6763 27.2008 54.4898C26.3306 54.3034 21.1714 58.2194 18.1256 58.468C15.689 58.6669 14.7483 53.0809 14.5825 50.263C13.4222 50.8846 10.5919 52.0408 8.55306 51.6927C6.51423 51.3446 6.46037 43.2183 6.6883 39.1987C6.10796 38.9171 5.46999 38.863 3.58035 36.7745C1.69071 34.6859 4.86496 28.528 6.6883 25.7102C5.69375 24.612 3.76681 21.9557 4.01545 20.1158C4.26409 18.2759 8.01435 16.6556 9.8584 16.0755C9.38185 15.2053 8.45361 12.9054 8.55306 10.6676Z" fill="#FD7811" stroke="black" stroke-width="1.86478"/>
<path d="M22.5131 7.98693C20.5738 8.38475 16.9395 11.8822 15.3648 13.5813C13.3757 13.9543 12.4433 7.55181 14.9919 5.25192C17.5404 2.95203 24.9373 7.48965 22.5131 7.98693Z" fill="#FEC601" stroke="black" stroke-width="1.86478"/>
<path d="M45.8531 7.98693C47.7925 8.38475 51.4267 11.8822 53.0014 13.5813C54.9905 13.9543 55.9229 7.55181 53.3743 5.25192C50.8258 2.95203 43.4289 7.48965 45.8531 7.98693Z" fill="#FEC601" stroke="black" stroke-width="1.86478"/>
<circle cx="33.9552" cy="29.9664" r="19.7045" fill="#FEC601" stroke="black" stroke-width="1.86478"/>
<path d="M42.7193 37.613C42.7193 42.0872 37.2493 43.017 34.0477 43.017C30.101 43.017 25.4697 41.5351 25.4697 37.613C25.4697 32.7634 30.5983 30.2148 34.0477 30.2148C36.0061 30.2148 42.7193 31.6445 42.7193 37.613Z" fill="#FFE27C"/>
<path d="M33.8492 34.8782C32.6294 34.8782 31.4883 33.4026 31.4883 32.5664C31.5867 32.2713 32.5901 31.8286 33.8492 31.8286C35.1084 31.8286 36.2102 32.3697 36.2102 32.6648C36.2102 33.4026 35.0691 34.8782 33.8492 34.8782Z" fill="black" stroke="black" stroke-width="0.491868"/>
<path d="M31.0947 35.6159C31.1603 35.829 31.4872 36.4521 32.2752 36.4521C33.0622 36.4521 33.4885 35.6979 33.6033 35.4683L33.8984 34.3862L34.1935 35.4683C34.2755 35.7471 34.8821 36.4521 35.5215 36.4521C36.117 36.4521 36.6528 35.8618 36.7512 35.6159" stroke="black" stroke-width="0.983736" stroke-linecap="round"/>
<path d="M42.859 35.5695C46.1419 34.5058 47.8023 34.2535 48.2222 34.2602" stroke="black" stroke-width="0.621592" stroke-linecap="round"/>
<path d="M25.4242 35.5699C22.1413 34.5063 20.4809 34.2539 20.061 34.2607" stroke="black" stroke-width="0.621592" stroke-linecap="round"/>
<path d="M42.8978 38.166C46.2841 37.6109 47.9605 37.613 48.3755 37.6834" stroke="black" stroke-width="0.621592" stroke-linecap="round"/>
<path d="M25.3844 38.1665C21.9981 37.6114 20.3217 37.6135 19.9068 37.6839" stroke="black" stroke-width="0.621592" stroke-linecap="round"/>
<path d="M23.0003 34.9168C22.9703 32.6604 24.9702 30.5407 26.1701 29.7886C27.17 30.404 29 32.9475 29 34.9168C29 36.886 27.1034 37.7886 26.1701 37.7886C25.2368 37.7886 23.0312 37.2373 23.0003 34.9168Z" fill="#7CC4FF" stroke="black"/>
<path d="M38.0003 34.9168C37.9703 32.6604 39.9702 30.5407 41.1701 29.7886C42.17 30.404 44 32.9475 44 34.9168C44 36.886 42.1034 37.7886 41.1701 37.7886C40.2368 37.7886 38.0312 37.2373 38.0003 34.9168Z" fill="#7CC4FF" stroke="black"/>
<path d="M22.5 26.2889C26 24.789 29 26.7886 28.063 26.4136C26.563 26.7469 25.063 26.9136 23.063 28.4135" stroke="black" stroke-linecap="round"/>
<path d="M44.7363 26.2889C41.2363 24.789 38.2363 26.7886 39.1733 26.4136C40.6733 26.7469 42.1733 26.9136 44.1733 28.4135" stroke="black" stroke-linecap="round"/>
</svg>
