<svg width="335" height="320" viewBox="0 0 335 320" fill="none" xmlns="http://www.w3.org/2000/svg">
<path d="M42.6654 53.2137C43.1615 42.0512 59.2025 39.2605 67.161 39.2605C67.9879 36.3666 70.944 29.2765 76.1532 24.067C82.6647 17.5552 99.4085 26.5479 99.4085 24.067C99.4085 21.5862 106.54 10.4239 119.253 5.7717C129.423 2.04994 158.839 12.4895 172.275 18.1745C178.167 13.8335 196.337 5.27558 221.887 5.7717C253.824 6.39184 228.088 31.5087 247.002 24.067C262.134 18.1137 270.878 31.7155 273.358 39.2605C278.423 39.2605 290.226 40.9969 296.924 47.9425C303.621 54.8881 296.614 72.3348 292.273 80.1899C296.2 82.0503 306.536 87.4456 316.458 94.1431C326.381 100.841 319.868 113.1 315.734 118.784C313.873 122.505 304.986 127.073 312.427 139.724C321.729 155.537 324.52 177.862 324.21 183.444C323.962 187.909 312.117 193.366 306.226 195.536C305.916 198.844 305.482 208.621 306.226 221.272C307.156 237.086 300.645 253.21 294.753 257.861C290.04 261.581 272.325 253.003 264.056 248.248C263.023 260.755 258.661 286.945 249.483 291.658C240.305 296.371 214.858 280.392 203.282 271.814C197.288 282.356 181.763 304.061 167.624 306.542C149.95 309.642 140.028 272.744 135.687 271.814C131.346 270.884 105.61 290.418 90.4164 291.658C78.2617 292.651 73.5692 264.786 72.7424 250.729C66.9544 253.83 52.8358 259.597 42.6654 257.861C32.495 256.124 32.2263 215.588 33.3633 195.536C30.4684 194.132 27.286 193.862 17.8598 183.444C8.43367 173.025 24.2679 142.307 33.3633 128.251C28.4022 122.773 18.79 109.523 20.0303 100.345C21.2705 91.1664 39.9781 83.0839 49.1769 80.1899C46.7997 75.8489 42.1693 64.3763 42.6654 53.2137Z" fill="#FD7811"/>
<path d="M112.306 39.8415C102.631 41.826 84.5025 59.2726 76.6474 67.7479C66.7251 69.6088 62.074 37.671 74.787 26.1984C87.4999 14.7257 124.398 37.3609 112.306 39.8415Z" fill="#FEC601"/>
<path d="M228.728 39.8415C238.402 41.826 256.531 59.2726 264.386 67.7479C274.309 69.6088 278.96 37.671 266.247 26.1984C253.534 14.7257 216.635 37.3609 228.728 39.8415Z" fill="#FEC601"/>
<circle cx="169.38" cy="149.481" r="102.944" fill="#FEC601"/>
<path d="M213.101 187.626C213.101 209.945 185.815 214.583 169.844 214.583C150.156 214.583 127.054 207.191 127.054 187.626C127.054 163.435 152.637 150.722 169.844 150.722C179.613 150.722 213.101 157.853 213.101 187.626Z" fill="#FFE27C"/>
<path d="M168.856 173.987C162.771 173.987 157.079 166.626 157.079 162.455C157.57 160.983 162.575 158.774 168.856 158.774C175.138 158.774 180.634 161.473 180.634 162.946C180.634 166.626 174.941 173.987 168.856 173.987Z" fill="black" stroke="black" stroke-width="2.45361"/>
<path d="M155.116 177.666C155.443 178.729 157.074 181.837 161.004 181.837C164.93 181.837 167.057 178.075 167.629 176.93L169.101 171.532L170.573 176.93C170.982 178.321 174.008 181.837 177.198 181.837C180.169 181.837 182.841 178.893 183.332 177.666" stroke="black" stroke-width="4.90721" stroke-linecap="round"/>
<path d="M213.793 177.432C230.168 172.127 238.451 170.868 240.546 170.902" stroke="black" stroke-width="3.10071" stroke-linecap="round"/>
<path d="M126.825 177.437C110.449 172.132 102.166 170.873 100.071 170.907" stroke="black" stroke-width="3.10071" stroke-linecap="round"/>
<path d="M213.991 190.387C230.883 187.618 239.246 187.629 241.316 187.98" stroke="black" stroke-width="3.10071" stroke-linecap="round"/>
<path d="M126.628 190.387C109.736 187.618 101.374 187.629 99.3038 187.98" stroke="black" stroke-width="3.10071" stroke-linecap="round"/>
<path d="M114.734 174.179C114.584 162.923 124.56 152.35 130.545 148.598C135.533 151.667 144.662 164.356 144.662 174.179C144.662 184.002 135.201 188.504 130.545 188.504C125.89 188.504 114.888 185.755 114.734 174.179Z" fill="#7CC4FF"/>
<path d="M189.559 174.179C189.409 162.923 199.385 152.35 205.371 148.598C210.359 151.667 219.487 164.356 219.487 174.179C219.487 184.002 210.026 188.504 205.371 188.504C200.715 188.504 189.713 185.755 189.559 174.179Z" fill="#7CC4FF"/>
<path d="M112.238 131.136C129.697 123.654 144.662 133.628 139.988 131.758C132.506 133.42 125.023 134.252 115.046 141.734" stroke="black" stroke-width="4.98834" stroke-linecap="round"/>
<path d="M223.16 131.136C205.701 123.654 190.736 133.628 195.41 131.758C202.892 133.42 210.375 134.252 220.352 141.734" stroke="black" stroke-width="4.98834" stroke-linecap="round"/>
</svg>
