<svg width="34" height="40" viewBox="0 0 34 40" fill="none" xmlns="http://www.w3.org/2000/svg">
<path d="M17 5.66667C13.6377 5.66667 10.3509 6.6637 7.55531 8.53168C4.75968 10.3997 2.58074 13.0547 1.29406 16.161C0.00736582 19.2674 -0.329291 22.6855 0.326658 25.9832C0.982606 29.2809 2.6017 32.31 4.97919 34.6875C7.35668 37.065 10.3858 38.6841 13.6835 39.34C16.9811 39.996 20.3993 39.6593 23.5056 38.3726C26.612 37.0859 29.267 34.907 31.135 32.1114C33.003 29.3157 34 26.0289 34 22.6667C33.9948 18.1596 32.2021 13.8385 29.0151 10.6515C25.8281 7.46454 21.5071 5.67182 17 5.66667ZM17 36.8333C14.1981 36.8333 11.4591 36.0025 9.12943 34.4458C6.79973 32.8892 4.98395 30.6766 3.91171 28.088C2.83947 25.4994 2.55893 22.6509 3.10555 19.9029C3.65217 17.1548 5.00142 14.6306 6.98266 12.6493C8.9639 10.6681 11.4882 9.31883 14.2362 8.77221C16.9843 8.22558 19.8327 8.50613 22.4214 9.57837C25.01 10.6506 27.2225 12.4664 28.7792 14.7961C30.3358 17.1258 31.1667 19.8648 31.1667 22.6667C31.1624 26.4226 29.6685 30.0235 27.0127 32.6794C24.3568 35.3352 20.7559 36.8291 17 36.8333ZM25.0856 14.581C25.2173 14.7126 25.3218 14.8689 25.3931 15.0408C25.4644 15.2128 25.5011 15.3972 25.5011 15.5833C25.5011 15.7695 25.4644 15.9538 25.3931 16.1258C25.3218 16.2978 25.2173 16.4541 25.0856 16.5856L18.0023 23.669C17.8707 23.8006 17.7144 23.905 17.5424 23.9762C17.3705 24.0475 17.1861 24.0841 17 24.0841C16.8139 24.0841 16.6295 24.0475 16.4576 23.9762C16.2856 23.905 16.1293 23.8006 15.9977 23.669C15.8661 23.5373 15.7617 23.3811 15.6904 23.2091C15.6192 23.0371 15.5826 22.8528 15.5826 22.6667C15.5826 22.4805 15.6192 22.2962 15.6904 22.1242C15.7617 21.9523 15.8661 21.796 15.9977 21.6644L23.081 14.581C23.2126 14.4493 23.3689 14.3448 23.5408 14.2735C23.7128 14.2022 23.8972 14.1656 24.0833 14.1656C24.2695 14.1656 24.4539 14.2022 24.6258 14.2735C24.7978 14.3448 24.9541 14.4493 25.0856 14.581ZM11.3333 1.41667C11.3333 1.04094 11.4826 0.680608 11.7483 0.414932C12.0139 0.149255 12.3743 0 12.75 0H21.25C21.6257 0 21.9861 0.149255 22.2517 0.414932C22.5174 0.680608 22.6667 1.04094 22.6667 1.41667C22.6667 1.79239 22.5174 2.15272 22.2517 2.4184C21.9861 2.68408 21.6257 2.83333 21.25 2.83333H12.75C12.3743 2.83333 12.0139 2.68408 11.7483 2.4184C11.4826 2.15272 11.3333 1.79239 11.3333 1.41667Z" fill="#FD7811"/>
</svg>
