<svg width="64" height="63" viewBox="0 0 64 63" fill="none" xmlns="http://www.w3.org/2000/svg">
<path d="M6.48519 10.6001C6.58464 8.36239 9.80035 7.80296 11.3958 7.80296C11.5615 7.22283 12.1541 5.80148 13.1984 4.75716C14.5037 3.45175 17.8603 5.25449 17.8603 4.75716C17.8603 4.25982 19.29 2.02215 21.8385 1.08954C23.8773 0.343445 29.7742 2.43624 32.4677 3.5759C33.6488 2.70568 37.2913 0.990082 42.4132 1.08954C48.8156 1.21386 43.6564 6.24898 47.4481 4.75716C50.4815 3.5637 52.2344 6.29042 52.7316 7.80296C53.7469 7.80296 56.1131 8.15105 57.4557 9.54342C58.7984 10.9358 57.3936 14.4333 56.5233 16.008C57.3107 16.3809 59.3827 17.4625 61.3718 18.8051C63.3609 20.1478 62.0553 22.6053 61.2265 23.7449C60.8536 24.4908 59.0719 25.4064 60.5637 27.9425C62.4285 31.1126 62.9879 35.5881 62.9257 36.707C62.876 37.6021 60.5015 38.6961 59.3205 39.1312C59.2584 39.7942 59.1713 41.7543 59.3205 44.2904C59.507 47.4605 58.2016 50.6928 57.0206 51.6252C56.0758 52.3711 52.5244 50.6513 50.8669 49.6982C50.6597 52.2053 49.7853 57.4557 47.9454 58.4005C46.1055 59.3453 41.0043 56.1421 38.6837 54.4223C37.4819 56.5357 34.3698 60.8869 31.5354 61.3842C27.9923 62.0058 26.0032 54.6088 25.133 54.4223C24.2627 54.2359 19.1035 58.1519 16.0577 58.4005C13.6211 58.5994 12.6804 53.0134 12.5146 50.1955C11.3543 50.8171 8.52402 51.9733 6.48519 51.6252C4.44635 51.2771 4.3925 43.1508 4.62042 39.1312C4.04009 38.8496 3.40212 38.7955 1.51248 36.707C-0.37716 34.6184 2.79709 28.4605 4.62042 25.6426C3.62588 24.5445 1.69894 21.8882 1.94758 20.0483C2.19622 18.2084 5.94648 16.5881 7.79053 16.008C7.31398 15.1377 6.38574 12.8379 6.48519 10.6001Z" fill="#FD7811" stroke="black" stroke-width="1.86478"/>
<path d="M20.4457 7.91918C18.5064 8.317 14.8721 11.8145 13.2974 13.5135C11.3083 13.8866 10.376 7.48406 12.9245 5.18418C15.473 2.88429 22.8699 7.42191 20.4457 7.91918Z" fill="#FEC601" stroke="black" stroke-width="1.86478"/>
<path d="M43.7847 7.91918C45.7241 8.317 49.3583 11.8145 50.933 13.5135C52.9221 13.8866 53.8545 7.48406 51.306 5.18418C48.7575 2.88429 41.3605 7.42191 43.7847 7.91918Z" fill="#FEC601" stroke="black" stroke-width="1.86478"/>
<circle cx="31.8873" cy="29.8987" r="19.7045" fill="#FEC601" stroke="black" stroke-width="1.86478"/>
<circle cx="24.2416" cy="25.361" r="2.42421" fill="black"/>
<circle cx="23.4336" cy="24.553" r="0.621592" fill="white"/>
<circle cx="38.414" cy="25.361" r="2.42421" fill="black"/>
<circle cx="37.606" cy="24.553" r="0.621592" fill="white"/>
<path d="M40.6519 37.5456C40.6519 42.0199 35.1819 42.9497 31.9803 42.9497C28.0336 42.9497 23.4024 41.4677 23.4023 37.5456C23.4023 32.696 28.5309 30.1475 31.9803 30.1475C33.9387 30.1475 40.6519 31.5771 40.6519 37.5456Z" fill="#FFE27C"/>
<path d="M31.7824 34.8106C30.5625 34.8106 29.4214 33.335 29.4214 32.4988C29.5198 32.2037 30.5232 31.761 31.7824 31.761C33.0415 31.761 34.1433 32.3021 34.1433 32.5972C34.1433 33.335 33.0022 34.8106 31.7824 34.8106Z" fill="black" stroke="black" stroke-width="0.491868"/>
<path d="M29.0278 35.5484C29.0934 35.7615 29.4203 36.3846 30.2083 36.3846C30.9953 36.3846 31.4216 35.6304 31.5364 35.4008L31.8315 34.3187L32.1266 35.4008C32.2086 35.6796 32.8152 36.3846 33.4546 36.3846C34.0501 36.3846 34.5859 35.7943 34.6843 35.5484" stroke="black" stroke-width="0.983736" stroke-linecap="round"/>
<path d="M40.7911 35.5019C44.074 34.4383 45.7344 34.1859 46.1543 34.1927" stroke="black" stroke-width="0.621592" stroke-linecap="round"/>
<path d="M23.3563 35.5024C20.0735 34.4387 18.413 34.1864 17.9932 34.1932" stroke="black" stroke-width="0.621592" stroke-linecap="round"/>
<path d="M40.8304 38.0984C44.2167 37.5433 45.8932 37.5454 46.3081 37.6158" stroke="black" stroke-width="0.621592" stroke-linecap="round"/>
<path d="M23.3171 38.0988C19.9307 37.5438 18.2543 37.5459 17.8394 37.6163" stroke="black" stroke-width="0.621592" stroke-linecap="round"/>
</svg>
